<svg xmlns="http://www.w3.org/2000/svg" xmlns:xlink="http://www.w3.org/1999/xlink" width="1920" zoomAndPan="magnify" viewBox="0 0 1440 599.999999" height="800" preserveAspectRatio="xMidYMid meet" version="1.0"><defs><clipPath id="e01e6a25a5"><path d="M 630 376.519531 L 638.019531 376.519531 L 638.019531 390 L 630 390 Z M 630 376.519531 " clip-rule="nonzero"/></clipPath></defs><path fill="#393A10" d="M 212.863281 557.101562 C 207.398438 558.828125 202.222656 560.84375 197.042969 562.570312 C 193.304688 564.007812 189.851562 562.855469 187.261719 559.980469 C 185.25 557.964844 183.8125 555.378906 182.085938 553.078125 C 180.933594 551.351562 180.359375 549.625 179.496094 547.609375 C 177.484375 542.71875 173.457031 540.996094 168.566406 540.996094 C 166.265625 540.996094 163.675781 541.28125 161.660156 542.144531 C 153.894531 545.308594 146.128906 548.1875 138.648438 551.636719 C 130.59375 555.378906 122.539062 559.691406 114.488281 563.71875 C 112.183594 564.871094 109.597656 565.734375 107.007812 565.445312 C 102.40625 565.15625 99.242188 562.570312 99.242188 558.253906 C 99.242188 555.089844 97.800781 552.789062 95.789062 550.773438 C 92.625 547.609375 89.171875 545.023438 85.433594 543.007812 C 82.269531 541.570312 79.394531 539.84375 76.226562 538.117188 C 69.324219 534.667969 65.296875 529.488281 66.160156 520.570312 C 64.433594 521.722656 62.996094 522.585938 61.847656 523.449219 C 49.476562 533.515625 37.394531 543.007812 25.890625 552.789062 C 18.984375 558.542969 14.671875 566.308594 10.929688 574.363281 C 10.644531 575.226562 10.355469 576.089844 9.78125 576.953125 C 8.628906 578.964844 6.328125 580.117188 4.027344 579.539062 C 1.726562 578.964844 0 576.953125 0 574.652344 C 0 573.210938 0.289062 571.484375 0.863281 570.046875 C 4.316406 561.417969 8.917969 553.078125 15.535156 546.171875 C 19.847656 541.570312 25.027344 537.542969 29.628906 533.515625 C 40.847656 524.023438 52.351562 515.105469 64.433594 506.765625 C 73.925781 500.148438 83.417969 493.242188 92.914062 486.628906 C 100.679688 481.164062 109.019531 475.984375 117.652344 471.957031 C 122.828125 469.367188 128.007812 466.492188 132.898438 463.617188 C 140.664062 459.011719 149.003906 455.273438 157.921875 452.972656 C 160.222656 452.398438 162.523438 451.246094 164.828125 450.382812 C 169.429688 448.65625 173.742188 446.355469 178.347656 444.917969 C 183.234375 443.191406 186.976562 440.601562 189.851562 436.289062 C 191.289062 433.988281 193.304688 431.972656 196.46875 431.6875 C 197.332031 431.398438 198.480469 430.535156 199.058594 429.386719 C 200.78125 426.21875 202.507812 422.769531 203.945312 419.605469 C 206.824219 413.277344 209.988281 407.234375 214.015625 401.769531 C 216.027344 398.894531 218.042969 395.730469 219.769531 392.851562 C 221.78125 389.402344 224.082031 386.523438 227.246094 384.222656 C 233.863281 379.332031 240.191406 374.15625 248.535156 372.140625 C 256.589844 370.414062 262.339844 365.238281 268.09375 360.058594 C 273.847656 354.59375 279.601562 348.839844 285.355469 343.089844 C 286.214844 342.226562 287.367188 341.074219 287.941406 340.210938 C 291.683594 334.171875 296.570312 329.570312 302.902344 326.40625 C 306.066406 324.679688 308.652344 322.089844 310.667969 319.214844 C 315.269531 312.308594 319.871094 305.40625 324.1875 298.214844 C 327.925781 292.171875 332.242188 286.421875 337.417969 281.53125 C 345.472656 273.476562 353.238281 265.421875 361.007812 257.078125 C 365.898438 251.902344 371.9375 247.875 377.976562 244.136719 C 384.882812 240.109375 391.5 240.972656 397.25 246.4375 C 403.003906 251.902344 408.183594 257.941406 413.648438 263.695312 C 415.085938 265.421875 416.523438 267.148438 417.675781 268.875 C 422.277344 275.203125 428.605469 279.515625 436.371094 281.53125 C 438.960938 282.394531 441.550781 283.257812 444.425781 283.832031 C 457.660156 286.421875 468.878906 292.75 479.519531 301.089844 C 485.5625 305.980469 490.164062 312.023438 493.902344 318.636719 C 496.492188 322.953125 499.367188 327.554688 502.246094 332.15625 C 503.109375 331.007812 503.683594 330.429688 504.257812 329.570312 C 505.695312 326.691406 507.136719 323.527344 508 320.363281 C 510.300781 312.882812 514.039062 306.269531 518.929688 300.226562 C 522.09375 296.488281 524.96875 292.75 528.132812 288.722656 C 531.296875 284.695312 534.175781 280.667969 537.050781 276.640625 C 540.503906 271.460938 545.105469 270.597656 550.285156 274.339844 C 551.722656 275.488281 553.160156 276.925781 554.597656 278.367188 C 558.914062 283.257812 563.226562 288.144531 567.832031 293.035156 C 569.554688 295.050781 571.570312 296.777344 574.734375 297.640625 C 577.898438 293.613281 580.773438 289.871094 583.9375 285.84375 C 585.378906 284.117188 586.527344 282.105469 587.964844 280.378906 C 594.871094 271.75 601.773438 263.121094 608.675781 254.203125 C 611.265625 250.75 613.855469 246.722656 615.867188 242.984375 C 619.609375 235.21875 624.210938 227.738281 630.539062 221.699219 C 638.304688 214.21875 646.074219 206.453125 653.839844 198.972656 C 665.34375 188.042969 674.261719 175.386719 681.167969 161.003906 C 684.617188 154.097656 688.644531 147.484375 692.671875 140.867188 C 696.125 134.828125 700.726562 129.9375 706.191406 125.332031 C 707.917969 123.894531 709.355469 122.457031 710.796875 120.730469 C 721.152344 108.9375 731.507812 97.144531 742.148438 85.351562 C 747.613281 79.308594 753.082031 73.554688 758.546875 67.800781 C 762.285156 63.777344 767.464844 61.761719 772.929688 60.613281 C 774.65625 60.324219 776.378906 60.324219 777.820312 60.898438 C 782.996094 62.914062 786.734375 66.652344 789.039062 71.542969 C 790.476562 74.992188 792.203125 78.160156 794.214844 81.324219 C 797.667969 86.5 800.542969 92.253906 802.84375 98.292969 C 806.296875 107.785156 811.1875 116.703125 816.363281 125.621094 C 818.664062 129.648438 822.117188 132.238281 826.71875 133.964844 C 831.324219 135.6875 835.925781 136.839844 840.816406 137.128906 C 850.882812 137.992188 858.074219 143.167969 864.113281 150.648438 C 865.839844 152.949219 867.277344 156.398438 867.566406 159.277344 C 868.71875 167.90625 873.03125 174.808594 877.058594 182 C 879.359375 185.742188 882.8125 188.617188 886.550781 190.632812 C 891.441406 193.507812 896.332031 196.382812 900.933594 199.546875 C 903.523438 201.273438 905.824219 203.574219 908.125 205.878906 C 911.867188 209.328125 915.316406 213.355469 919.058594 216.519531 C 925.097656 221.699219 931.136719 226.875 937.46875 232.054688 C 938.328125 230.902344 939.480469 230.039062 940.34375 228.890625 C 947.246094 219.683594 954.4375 210.480469 961.054688 200.988281 C 965.65625 194.371094 971.699219 189.480469 978.601562 185.742188 C 982.917969 183.441406 986.945312 180.5625 990.394531 177.398438 C 992.410156 175.386719 994.710938 173.660156 997.011719 171.933594 C 1002.1875 167.90625 1006.792969 163.589844 1011.105469 158.703125 C 1013.40625 156.398438 1015.996094 154.386719 1018.585938 152.375 C 1021.75 150.070312 1025.203125 150.359375 1028.652344 152.660156 C 1030.09375 153.8125 1031.53125 154.675781 1032.679688 156.113281 C 1049.652344 175.097656 1068.351562 192.070312 1087.621094 208.464844 C 1093.089844 213.355469 1097.976562 218.535156 1101.71875 224.863281 C 1102.867188 226.875 1104.308594 228.890625 1105.457031 230.902344 C 1110.058594 239.246094 1116.964844 245.285156 1125.304688 249.886719 C 1135.660156 255.640625 1145.730469 261.394531 1156.085938 267.148438 C 1174.207031 277.214844 1190.601562 290.160156 1205.847656 303.96875 C 1211.027344 308.570312 1214.476562 314.609375 1218.503906 320.074219 C 1222.246094 325.542969 1225.984375 331.007812 1229.722656 336.472656 C 1234.613281 343.089844 1240.941406 347.691406 1248.421875 351.429688 C 1253.3125 353.730469 1257.625 356.894531 1262.230469 359.773438 C 1264.53125 361.210938 1266.542969 363.511719 1267.980469 365.527344 C 1273.449219 373.003906 1279.199219 380.769531 1284.378906 388.539062 C 1287.253906 392.851562 1289.554688 397.742188 1291.859375 402.34375 C 1293.871094 406.660156 1296.746094 410.113281 1299.910156 413.5625 C 1303.9375 417.589844 1307.964844 421.617188 1311.417969 425.933594 C 1317.746094 433.410156 1324.648438 440.027344 1332.703125 446.070312 C 1343.347656 454.121094 1354.277344 461.890625 1365.496094 468.792969 C 1375.851562 475.121094 1384.480469 483.175781 1391.097656 493.53125 C 1398.863281 505.613281 1406.917969 517.40625 1414.6875 529.199219 C 1419.289062 536.105469 1424.464844 542.433594 1430.507812 547.898438 C 1431.65625 548.761719 1433.097656 549.625 1434.535156 550.199219 C 1438.273438 551.636719 1440 554.226562 1439.425781 557.390625 C 1438.847656 560.554688 1435.972656 562.28125 1432.234375 561.992188 C 1423.316406 561.417969 1415.835938 557.679688 1408.359375 553.363281 C 1401.742188 549.335938 1396.5625 543.582031 1393.113281 536.390625 C 1389.085938 527.761719 1382.757812 521.722656 1374.988281 516.542969 C 1361.46875 507.625 1348.527344 498.421875 1335.007812 489.21875 C 1333.855469 488.355469 1332.703125 487.777344 1331.265625 487.492188 C 1331.839844 488.929688 1332.417969 490.65625 1332.992188 492.09375 C 1334.71875 497.269531 1336.730469 502.449219 1338.457031 507.625 C 1339.03125 509.640625 1338.746094 511.652344 1339.03125 513.957031 C 1339.320312 515.105469 1339.320312 516.257812 1339.894531 517.121094 C 1345.648438 524.597656 1348.238281 533.515625 1349.964844 542.71875 C 1351.691406 551.925781 1357.441406 558.828125 1364.347656 564.871094 C 1367.511719 567.460938 1370.960938 569.761719 1374.414062 571.773438 C 1379.878906 575.226562 1384.769531 578.964844 1389.085938 583.855469 C 1390.234375 585.007812 1391.097656 586.730469 1391.675781 588.171875 C 1392.535156 590.472656 1391.386719 593.058594 1389.371094 594.5 C 1387.359375 595.9375 1385.058594 595.648438 1383.042969 594.5 C 1381.894531 593.921875 1381.03125 592.773438 1380.167969 591.910156 C 1376.140625 587.882812 1371.539062 584.144531 1366.359375 581.265625 C 1355.71875 575.226562 1347.375 566.597656 1341.621094 555.664062 C 1339.894531 552.214844 1338.746094 548.472656 1338.171875 544.734375 C 1336.730469 536.679688 1333.855469 529.488281 1328.964844 522.585938 C 1321.484375 511.941406 1315.445312 500.433594 1310.554688 488.066406 C 1308.253906 482.027344 1305.378906 475.984375 1301.925781 470.808594 C 1297.898438 465.054688 1292.71875 460.164062 1287.832031 454.699219 C 1282.941406 449.234375 1277.476562 444.054688 1272.871094 438.589844 C 1261.941406 425.933594 1255.039062 411.261719 1252.160156 394.867188 C 1251.296875 389.402344 1248.710938 385.949219 1244.394531 382.785156 C 1237.492188 377.605469 1229.722656 374.441406 1221.382812 372.429688 C 1214.191406 370.703125 1209.300781 366.675781 1205.847656 360.347656 C 1202.683594 354.59375 1198.945312 349.417969 1194.628906 344.527344 C 1188.015625 337.046875 1181.6875 329.28125 1175.070312 321.515625 C 1172.480469 318.351562 1169.890625 314.898438 1167.589844 311.445312 C 1163.851562 305.980469 1159.824219 301.378906 1154.359375 297.640625 C 1142.277344 289.296875 1130.195312 281.53125 1116.675781 276.351562 C 1112.648438 274.914062 1108.332031 273.476562 1104.308594 272.613281 C 1095.675781 270.597656 1088.773438 265.710938 1084.171875 258.230469 C 1080.71875 252.765625 1077.84375 247.011719 1074.964844 241.257812 C 1070.652344 232.917969 1066.046875 225.148438 1060.296875 217.671875 C 1048.789062 203 1037.28125 188.042969 1025.777344 173.085938 C 1024.914062 171.933594 1023.761719 170.78125 1022.613281 169.34375 C 1020.023438 176.25 1018.011719 182.863281 1017.722656 189.769531 C 1017.433594 194.945312 1017.433594 200.125 1017.433594 205.300781 C 1017.433594 209.902344 1017.722656 214.507812 1019.449219 218.820312 C 1020.3125 221.121094 1020.023438 223.710938 1019.734375 226.300781 C 1018.585938 234.640625 1016.859375 243.273438 1015.710938 251.613281 C 1014.847656 257.941406 1014.847656 264.269531 1018.296875 270.023438 C 1020.023438 273.1875 1021.175781 276.640625 1021.175781 280.09375 C 1021.175781 283.832031 1020.023438 286.996094 1016.859375 289.007812 C 1013.40625 291.308594 1009.957031 293.613281 1005.929688 295.625 C 1001.039062 297.925781 997.300781 296.199219 995.285156 291.023438 C 992.695312 284.117188 990.109375 277.214844 987.519531 270.3125 C 985.792969 265.996094 983.492188 261.96875 981.191406 257.941406 C 980.328125 256.214844 978.890625 254.492188 976.875 254.492188 C 971.410156 254.203125 967.957031 251.039062 965.082031 246.722656 C 964.21875 245.285156 963.066406 243.847656 962.207031 242.410156 C 960.765625 239.820312 959.039062 237.804688 956.164062 236.367188 C 954.4375 235.503906 953.289062 233.78125 951.5625 232.339844 C 949.261719 234.929688 946.960938 237.804688 944.65625 240.394531 C 951.5625 251.613281 958.753906 262.542969 965.65625 273.761719 C 967.957031 277.789062 970.546875 281.816406 972.273438 285.84375 C 976.011719 294.1875 980.039062 302.527344 985.792969 310.007812 C 989.53125 314.898438 993.558594 319.210938 997.875 324.101562 C 999.023438 322.664062 999.601562 321.800781 1000.175781 320.9375 C 1002.476562 317.199219 1005.066406 313.460938 1007.367188 309.71875 C 1009.09375 307.132812 1011.683594 305.980469 1014.847656 306.269531 C 1024.625 306.554688 1033.542969 309.144531 1041.886719 314.324219 C 1046.777344 317.199219 1051.953125 319.789062 1057.417969 322.089844 C 1064.898438 325.253906 1072.089844 329.570312 1078.707031 334.171875 C 1081.007812 335.609375 1082.730469 337.910156 1085.035156 339.636719 C 1091.074219 344.527344 1097.113281 349.417969 1103.445312 354.019531 C 1108.332031 357.472656 1111.785156 361.785156 1113.800781 367.25 C 1118.113281 378.183594 1123.003906 389.113281 1130.195312 398.316406 C 1138.25 408.671875 1146.878906 418.742188 1155.507812 428.808594 C 1158.960938 433.125 1162.988281 436.863281 1166.726562 441.179688 C 1172.480469 447.507812 1177.082031 454.699219 1180.824219 462.464844 C 1185.136719 471.671875 1189.453125 480.875 1193.765625 490.078125 C 1194.628906 491.804688 1195.207031 493.53125 1196.929688 494.394531 C 1197.792969 494.96875 1198.371094 495.832031 1198.945312 496.695312 C 1207 507.625 1215.054688 518.558594 1224.546875 528.335938 C 1226.273438 530.0625 1228 531.503906 1230.011719 532.652344 C 1237.203125 536.96875 1244.394531 540.996094 1251.585938 545.308594 C 1252.738281 545.886719 1254.175781 546.460938 1255.613281 547.035156 C 1259.351562 548.1875 1261.078125 551.351562 1259.925781 555.089844 C 1258.777344 558.253906 1255.324219 559.980469 1251.875 559.117188 C 1250.722656 558.828125 1249.570312 558.253906 1248.710938 557.679688 C 1246.121094 556.242188 1243.53125 554.515625 1240.65625 553.363281 C 1238.929688 552.5 1237.203125 552.5 1235.476562 551.636719 C 1233.175781 550.773438 1230.875 550.199219 1229.148438 548.761719 C 1219.082031 541.570312 1209.011719 534.378906 1198.945312 527.1875 C 1192.902344 523.160156 1188.015625 517.980469 1184.851562 511.367188 C 1183.125 507.914062 1181.398438 504.175781 1179.671875 500.722656 C 1179.382812 499.859375 1178.808594 498.996094 1178.808594 498.132812 C 1178.808594 494.105469 1176.21875 491.519531 1174.207031 488.929688 C 1173.054688 487.492188 1171.90625 486.050781 1170.753906 484.613281 C 1158.960938 471.957031 1147.742188 458.726562 1138.25 444.34375 C 1135.085938 439.738281 1131.921875 434.851562 1128.757812 430.246094 C 1126.167969 426.21875 1123.292969 422.480469 1120.414062 418.742188 C 1114.949219 411.550781 1109.195312 404.644531 1103.730469 397.453125 C 1101.429688 394.289062 1099.128906 391.125 1097.402344 387.960938 C 1090.5 375.304688 1081.871094 364.085938 1070.9375 354.882812 C 1066.046875 350.855469 1060.871094 347.117188 1055.40625 344.238281 C 1049.652344 341.363281 1044.472656 337.621094 1038.722656 334.171875 C 1034.980469 331.871094 1031.53125 329.855469 1027.789062 327.554688 C 1024.339844 325.542969 1023.1875 325.828125 1021.75 329.566406 C 1020.3125 332.734375 1019.449219 336.183594 1018.296875 339.636719 C 1017.722656 341.648438 1018.296875 343.089844 1019.734375 344.527344 C 1028.367188 352.292969 1031.242188 362.9375 1034.40625 373.292969 C 1034.980469 375.019531 1034.695312 377.03125 1034.40625 378.757812 C 1032.679688 388.824219 1031.816406 399.179688 1028.941406 409.25 C 1027.214844 415 1025.488281 420.46875 1024.050781 426.507812 C 1022.898438 431.6875 1022.324219 437.152344 1021.75 442.90625 C 1023.761719 443.480469 1025.777344 444.054688 1027.503906 444.628906 C 1035.269531 446.070312 1041.308594 450.097656 1046.777344 456.136719 C 1055.40625 465.917969 1063.171875 475.984375 1072.953125 484.613281 C 1076.402344 487.492188 1078.707031 491.519531 1080.429688 495.832031 C 1082.15625 500.722656 1084.457031 505.324219 1086.472656 509.929688 C 1087.621094 512.804688 1088.773438 515.679688 1088.484375 518.558594 C 1087.910156 525.171875 1087.621094 532.078125 1086.761719 538.695312 C 1086.472656 541.859375 1085.035156 544.734375 1083.59375 547.609375 C 1080.71875 552.789062 1075.542969 553.074219 1071.515625 548.761719 C 1069.210938 545.882812 1066.910156 543.007812 1065.1875 539.84375 C 1061.445312 532.363281 1056.554688 526.035156 1050.515625 520.285156 C 1045.914062 515.96875 1042.171875 511.078125 1039.871094 505.324219 C 1036.996094 498.710938 1032.105469 494.105469 1025.488281 491.230469 C 1021.175781 489.503906 1017.148438 487.203125 1012.542969 484.902344 C 1012.257812 486.628906 1011.96875 488.066406 1011.683594 489.503906 C 1011.105469 495.257812 1010.820312 501.011719 1009.667969 506.761719 C 1008.804688 511.078125 1007.65625 515.394531 1005.640625 519.132812 C 1001.328125 528.050781 996.148438 536.390625 991.546875 545.023438 C 988.667969 550.488281 984.640625 555.089844 979.464844 558.253906 C 977.164062 559.691406 975.148438 561.128906 973.710938 563.71875 C 973.136719 564.582031 972.273438 565.445312 971.410156 565.734375 C 967.382812 568.320312 962.492188 565.445312 962.492188 560.554688 C 962.492188 559.40625 963.066406 557.964844 963.355469 556.816406 C 963.929688 554.226562 964.507812 551.351562 965.082031 548.761719 C 965.371094 547.035156 965.945312 545.308594 966.519531 543.871094 C 969.683594 533.515625 972.847656 523.160156 975.726562 512.804688 C 978.027344 504.460938 977.738281 495.832031 975.726562 487.492188 C 974.285156 480.875 972.273438 474.257812 970.546875 467.644531 C 969.683594 464.191406 969.398438 460.453125 970.257812 457 C 972.847656 446.929688 975.4375 437.152344 978.027344 427.082031 C 980.613281 417.015625 983.203125 406.660156 985.792969 396.304688 C 986.367188 394.289062 986.367188 391.988281 986.367188 389.976562 C 985.792969 384.511719 986.945312 379.332031 988.382812 373.867188 C 990.394531 366.964844 992.410156 360.347656 994.421875 353.445312 C 995.574219 349.992188 994.710938 346.539062 994.710938 342.800781 C 994.710938 337.910156 992.121094 335.035156 988.957031 332.15625 C 978.890625 322.664062 970.546875 311.160156 965.082031 298.5 C 960.765625 289.007812 955.589844 280.089844 949.546875 271.460938 C 946.960938 267.433594 944.660156 263.40625 942.355469 259.09375 C 940.054688 254.777344 937.753906 250.75 934.304688 247.585938 C 928.261719 241.832031 922.507812 236.367188 916.46875 230.902344 C 910.714844 225.726562 905.25 220.257812 899.496094 215.082031 C 896.621094 212.492188 893.742188 209.617188 890.292969 207.601562 C 886.265625 205.015625 881.949219 202.710938 877.058594 199.835938 C 876.773438 201.851562 876.484375 203.574219 876.484375 205.015625 C 876.195312 213.644531 876.195312 222.273438 877.636719 230.613281 C 878.210938 234.640625 878.785156 238.957031 877.058594 242.695312 C 874.757812 248.449219 875.046875 254.203125 876.195312 259.957031 C 878.496094 270.023438 877.347656 279.804688 875.621094 289.871094 C 874.757812 294.761719 873.894531 299.363281 873.03125 304.253906 C 872.457031 308.28125 872.746094 312.308594 874.183594 316.335938 C 877.921875 325.542969 882.238281 334.457031 887.414062 342.800781 C 891.15625 349.128906 894.03125 355.746094 896.90625 362.359375 C 899.207031 367.828125 899.785156 373.578125 897.195312 379.332031 C 894.03125 385.949219 888.277344 387.097656 883.675781 381.347656 C 878.210938 374.730469 872.746094 367.828125 867.277344 360.921875 C 859.226562 350.28125 851.457031 339.636719 843.691406 329.28125 C 839.953125 324.101562 836.789062 318.636719 834.199219 312.882812 C 832.472656 308.855469 831.898438 305.117188 833.046875 300.804688 C 834.488281 296.199219 835.925781 291.597656 837.652344 286.996094 C 842.253906 274.339844 842.828125 277.789062 835.925781 267.433594 C 832.183594 261.394531 829.019531 255.351562 826.433594 248.738281 C 824.992188 245.285156 824.707031 241.832031 825.28125 238.382812 C 825.855469 235.503906 826.433594 232.628906 827.007812 229.753906 C 827.582031 226.011719 827.871094 222.273438 828.15625 218.246094 C 828.445312 209.617188 828.445312 200.699219 829.019531 192.070312 C 829.597656 182.289062 826.71875 173.660156 823.269531 164.742188 C 819.816406 156.398438 816.078125 148.347656 812.335938 140.292969 C 812.050781 139.714844 811.761719 139.140625 811.1875 138.566406 C 806.296875 133.675781 803.132812 127.632812 800.253906 121.59375 C 796.515625 114.113281 793.640625 106.058594 789.898438 98.582031 C 787.3125 93.117188 784.148438 87.9375 780.984375 82.761719 C 780.695312 82.183594 780.40625 81.609375 780.121094 81.609375 C 778.96875 81.035156 777.53125 80.171875 776.09375 80.460938 C 775.230469 80.746094 774.367188 82.183594 774.078125 83.335938 C 772.929688 89.375 771.777344 95.417969 770.914062 101.746094 C 769.476562 111.527344 768.324219 121.019531 767.175781 130.796875 C 766.601562 136.839844 766.601562 142.878906 766.023438 148.921875 C 764.585938 166.46875 759.984375 183.441406 751.640625 199.261719 C 746.464844 208.753906 743.300781 218.535156 741 228.890625 C 740.421875 232.339844 739.847656 235.792969 739.847656 238.957031 C 739.847656 249.023438 740.136719 259.09375 740.421875 269.160156 C 740.710938 273.476562 739.847656 277.503906 737.835938 281.242188 C 734.671875 287.570312 730.066406 292.75 725.179688 297.925781 C 720.863281 302.527344 716.261719 306.554688 712.519531 311.445312 C 706.480469 318.925781 701.300781 326.980469 695.550781 334.746094 C 693.535156 337.621094 692.671875 341.363281 692.386719 344.8125 C 691.808594 351.71875 690.945312 358.332031 690.660156 365.238281 C 690.085938 373.867188 692.386719 381.921875 697.5625 389.113281 C 701.878906 395.441406 705.328125 402.058594 706.769531 409.535156 C 707.34375 412.699219 707.632812 416.152344 707.054688 419.316406 C 705.617188 426.21875 702.742188 432.835938 698.714844 438.878906 C 695.261719 444.054688 691.808594 449.234375 688.359375 454.410156 C 683.179688 462.175781 681.742188 470.519531 684.042969 479.722656 C 687.78125 495.257812 692.671875 510.214844 698.425781 524.886719 C 703.890625 538.40625 709.644531 551.925781 714.824219 565.734375 C 717.410156 572.636719 719.425781 580.117188 721.4375 587.308594 C 722.300781 591.046875 720.289062 594.210938 717.125 595.074219 C 715.109375 595.648438 713.097656 595.359375 711.371094 593.921875 C 708.78125 591.621094 705.90625 589.320312 703.605469 586.730469 C 702.164062 585.003906 701.015625 582.992188 700.152344 580.980469 C 695.550781 571.199219 689.222656 562.570312 683.179688 553.9375 C 680.304688 549.910156 678.003906 545.308594 675.414062 541.28125 C 671.386719 534.953125 667.648438 528.625 663.332031 522.871094 C 660.167969 518.558594 657.292969 513.953125 654.988281 509.066406 C 653.550781 505.902344 651.824219 502.738281 649.8125 499.574219 C 648.375 497.269531 646.359375 495.257812 644.058594 493.53125 C 640.894531 491.230469 637.15625 490.367188 633.128906 492.09375 C 628.8125 494.394531 624.5 496.40625 621.046875 499.285156 C 614.144531 504.75 607.527344 510.789062 600.625 516.257812 C 594.296875 521.722656 587.679688 526.898438 581.351562 532.078125 C 573.582031 538.40625 565.816406 544.734375 558.050781 551.351562 C 545.679688 561.707031 531.585938 569.183594 516.054688 573.789062 C 511.738281 575.226562 506.847656 575.511719 502.53125 575.800781 C 496.203125 576.089844 492.464844 571.199219 493.902344 565.15625 C 496.203125 554.800781 499.945312 545.023438 505.699219 535.816406 C 516.054688 519.421875 526.695312 503.023438 539.351562 488.355469 C 544.820312 482.3125 549.707031 475.695312 554.886719 469.367188 C 556.035156 467.644531 556.898438 465.628906 557.761719 463.902344 C 558.339844 462.464844 558.050781 461.3125 556.898438 460.453125 C 554.886719 459.011719 552.871094 457.863281 550.570312 456.425781 C 549.421875 455.847656 548.269531 455.847656 547.121094 455.5625 C 532.738281 449.808594 517.203125 448.082031 502.246094 444.054688 C 495.917969 442.328125 491.027344 439.164062 485.847656 435.425781 C 482.972656 433.125 482.398438 429.671875 484.410156 426.507812 C 487.863281 421.617188 491.316406 416.726562 494.765625 412.125 C 497.644531 408.671875 501.671875 406.371094 505.699219 404.644531 C 514.039062 401.195312 521.519531 396.304688 528.421875 390.261719 C 529.574219 389.402344 530.722656 388.25 531.296875 387.097656 C 533.023438 381.632812 537.050781 377.605469 541.078125 373.867188 C 546.542969 369.265625 549.996094 363.222656 553.160156 356.894531 C 555.175781 352.867188 555.460938 348.265625 553.160156 344.238281 C 547.695312 334.746094 544.820312 324.390625 542.230469 313.746094 C 540.792969 308.570312 539.351562 303.390625 537.914062 297.636719 C 537.050781 298.214844 536.1875 298.789062 535.902344 299.363281 C 533.601562 302.242188 531.296875 304.828125 529.285156 307.707031 C 525.832031 312.308594 522.957031 316.910156 520.941406 322.375 C 518.355469 329.855469 514.613281 336.472656 510.011719 342.800781 C 508.574219 344.8125 507.710938 346.828125 506.273438 348.839844 C 505.410156 349.992188 504.257812 351.140625 503.109375 352.292969 C 501.671875 353.445312 500.230469 354.59375 500.519531 356.894531 C 500.519531 358.046875 499.945312 359.195312 499.082031 360.058594 C 491.890625 368.113281 484.984375 376.167969 477.792969 383.933594 C 472.617188 389.6875 466 394.289062 459.960938 399.179688 C 455.644531 402.632812 451.617188 405.796875 447.589844 409.535156 C 441.839844 414.714844 436.371094 420.179688 430.621094 425.644531 C 429.179688 427.082031 427.742188 428.523438 426.59375 429.960938 C 418.25 441.464844 409.046875 452.398438 401.855469 464.765625 C 397.828125 471.667969 392.074219 476.847656 386.320312 482.027344 C 382.867188 485.476562 379.417969 488.929688 375.390625 491.804688 C 371.363281 495.257812 367.046875 498.132812 362.445312 501.011719 C 358.128906 503.886719 354.101562 506.765625 350.363281 510.503906 C 348.351562 512.515625 346.050781 514.242188 344.035156 515.96875 C 338.859375 520.859375 333.679688 525.75 328.214844 530.351562 C 326.777344 531.503906 326.199219 532.941406 326.488281 534.953125 C 326.777344 536.390625 326.488281 538.117188 326.777344 539.554688 C 327.351562 544.734375 326.199219 549.910156 323.898438 554.515625 C 318.433594 566.308594 310.667969 576.089844 299.160156 582.703125 C 294.558594 585.292969 290.242188 588.171875 285.640625 591.046875 C 283.914062 592.195312 282.191406 593.347656 281.328125 595.363281 C 279.601562 598.527344 276.4375 599.675781 272.984375 599.386719 C 270.394531 599.101562 268.382812 597.949219 267.519531 595.363281 C 266.65625 592.773438 266.945312 590.472656 268.667969 588.457031 C 269.53125 587.59375 270.683594 586.730469 271.546875 585.867188 C 275 583.566406 278.449219 581.265625 281.902344 579.253906 C 285.929688 576.664062 289.957031 574.074219 293.984375 571.773438 C 303.476562 566.308594 309.230469 557.679688 313.542969 547.898438 C 314.40625 546.171875 314.695312 544.160156 314.695312 542.144531 C 314.695312 538.695312 314.40625 534.953125 314.121094 531.503906 C 313.832031 527.476562 314.695312 523.734375 316.707031 520.570312 C 318.433594 517.695312 320.160156 515.105469 322.460938 512.515625 C 327.0625 506.765625 331.953125 501.296875 336.84375 495.832031 C 338.570312 493.820312 340.007812 491.804688 340.296875 488.929688 C 340.871094 485.191406 342.882812 482.027344 345.761719 479.4375 C 347.773438 477.710938 349.5 476.273438 351.800781 474.835938 C 363.882812 467.355469 373.089844 457 380.855469 445.492188 C 386.03125 437.4375 391.210938 429.382812 395.238281 420.46875 C 398.113281 413.5625 402.71875 407.523438 407.894531 402.058594 C 412.496094 396.878906 417.386719 392.277344 422.277344 387.097656 C 425.152344 384.222656 428.03125 381.058594 430.042969 377.605469 C 434.648438 370.128906 441.550781 366.675781 449.890625 365.523438 C 454.496094 364.949219 459.097656 364.085938 463.699219 365.238281 C 466 365.8125 468.015625 364.664062 470.027344 363.222656 C 477.21875 357.757812 484.699219 352.292969 491.890625 346.828125 C 495.628906 343.949219 495.917969 342.800781 493.617188 339.0625 C 489.011719 331.582031 484.410156 324.101562 480.097656 316.910156 C 479.519531 316.046875 478.945312 315.1875 478.082031 314.324219 C 468.589844 305.980469 458.808594 298.214844 446.152344 295.625 C 442.988281 295.050781 439.824219 293.898438 436.660156 293.035156 C 424.867188 289.871094 415.660156 283.832031 408.46875 274.050781 C 405.019531 269.160156 400.703125 264.847656 396.964844 260.242188 C 396.675781 260.53125 396.386719 260.53125 396.101562 260.820312 C 396.386719 262.257812 396.675781 263.695312 397.25 265.132812 C 401.566406 275.203125 400.128906 284.40625 394.664062 293.613281 C 390.347656 300.515625 387.757812 307.996094 385.171875 315.761719 C 381.144531 327.84375 375.964844 339.636719 371.363281 351.71875 C 366.761719 364.085938 356.980469 371.566406 346.625 378.46875 C 344.324219 379.90625 341.734375 380.195312 339.144531 378.757812 C 336.554688 377.320312 335.691406 374.730469 335.980469 371.855469 C 336.554688 367.539062 337.417969 363.222656 338.570312 359.195312 C 341.445312 349.128906 342.882812 338.484375 344.324219 328.128906 C 344.609375 325.542969 344.609375 322.953125 343.460938 320.363281 C 342.308594 317.773438 341.445312 314.898438 340.296875 311.734375 C 332.816406 324.101562 326.199219 336.183594 324.476562 350.566406 C 323.613281 356.894531 322.75 363.222656 322.171875 369.550781 C 321.3125 375.882812 319.296875 381.921875 315.84375 387.097656 C 314.980469 388.539062 314.121094 389.6875 312.96875 390.839844 C 298.011719 408.671875 288.519531 429.671875 278.738281 450.382812 C 277.300781 453.546875 276.148438 457 275.859375 460.738281 C 275 467.066406 273.273438 472.820312 270.683594 478.574219 C 265.792969 490.367188 260.902344 502.160156 255.726562 513.957031 C 250.261719 526.613281 243.355469 538.695312 235.300781 549.910156 C 232.136719 554.226562 228.972656 558.828125 225.808594 563.144531 C 224.945312 564.292969 224.082031 565.15625 223.21875 566.019531 C 221.207031 567.460938 219.191406 567.746094 216.890625 566.597656 C 214.589844 565.445312 213.441406 563.71875 213.441406 561.128906 C 212.289062 559.691406 212.578125 558.253906 212.863281 557.101562 Z M 251.410156 383.933594 C 249.972656 384.222656 249.398438 384.511719 248.820312 384.511719 C 244.792969 385.660156 241.628906 388.539062 238.179688 390.839844 C 234.4375 393.140625 231.273438 396.304688 228.972656 400.621094 C 227.824219 402.632812 226.671875 404.644531 225.519531 406.371094 C 220.054688 413.851562 215.742188 421.90625 211.425781 430.246094 C 210.5625 432.261719 210.277344 433.988281 210.851562 436 C 211.714844 439.164062 212.578125 442.617188 213.152344 446.070312 C 214.589844 452.683594 215.742188 459.300781 217.179688 465.917969 C 219.480469 477.421875 220.054688 488.640625 215.742188 499.859375 C 214.015625 503.886719 213.152344 508.488281 212.289062 512.804688 C 211.425781 516.257812 211.136719 519.707031 212 523.449219 C 213.726562 530.925781 215.164062 538.695312 216.890625 546.171875 C 216.890625 546.460938 217.179688 546.460938 217.46875 546.746094 C 218.042969 545.597656 218.328125 544.445312 218.90625 543.296875 C 222.644531 532.363281 226.382812 521.433594 230.410156 510.503906 C 232.136719 506.1875 233.863281 501.585938 236.164062 497.558594 C 243.929688 484.613281 249.398438 470.519531 255.148438 456.710938 C 256.011719 454.699219 256.589844 452.683594 256.011719 450.097656 C 254.574219 442.90625 254.863281 435.714844 257.738281 428.808594 C 258.890625 426.21875 259.753906 423.34375 260.039062 420.46875 C 260.617188 417.304688 260.902344 413.851562 260.039062 410.976562 C 257.449219 401.480469 254.285156 392.851562 251.410156 383.933594 Z M 724.027344 198.972656 C 724.027344 193.796875 724.316406 188.617188 724.027344 183.441406 C 724.027344 181.714844 723.164062 179.988281 722.589844 178.261719 C 722.300781 177.113281 721.4375 175.960938 721.152344 174.808594 C 720.574219 171.933594 718.5625 170.496094 715.683594 171.070312 C 714.535156 171.359375 713.382812 171.933594 712.519531 172.507812 C 700.726562 179.699219 692.097656 189.480469 687.496094 202.425781 C 684.90625 209.617188 681.167969 215.945312 676.5625 221.984375 C 668.507812 232.339844 660.167969 242.695312 651.25 252.1875 C 649.8125 253.628906 648.375 255.355469 647.511719 257.078125 C 645.785156 260.53125 646.359375 265.421875 648.949219 267.722656 C 651.25 269.734375 654.703125 271.175781 659.304688 268.585938 C 661.316406 267.433594 663.621094 265.996094 666.207031 265.421875 C 673.398438 263.984375 678.578125 259.957031 683.179688 254.492188 C 690.082031 246.148438 697.851562 238.09375 707.054688 232.054688 C 709.070312 230.613281 711.371094 229.464844 713.671875 228.601562 C 716.546875 227.738281 718.847656 226.011719 720.863281 224 C 723.738281 220.835938 724.316406 217.09375 724.316406 213.355469 C 724.027344 209.042969 724.027344 203.863281 724.027344 198.972656 Z M 623.636719 364.664062 C 623.636719 358.621094 623.636719 352.582031 623.636719 346.539062 C 623.636719 344.8125 623.347656 343.089844 622.484375 341.648438 C 621.621094 340.210938 620.757812 339.0625 620.757812 337.335938 C 620.472656 335.609375 619.320312 334.171875 617.59375 334.457031 C 616.445312 334.457031 615.007812 335.320312 613.855469 336.183594 C 613.28125 336.472656 613.28125 337.335938 612.992188 337.910156 C 607.527344 350.566406 601.773438 363.222656 596.308594 375.882812 C 595.15625 378.757812 594.871094 381.632812 595.15625 384.796875 C 596.019531 390.265625 596.597656 395.441406 597.460938 400.90625 C 598.035156 406.085938 598.898438 411.261719 599.472656 416.441406 C 599.761719 418.742188 600.910156 420.753906 603.5 421.332031 C 605.800781 421.90625 607.527344 420.46875 608.964844 418.742188 C 612.703125 414.140625 615.867188 409.25 617.59375 403.785156 C 618.746094 400.332031 620.183594 396.878906 621.335938 393.429688 C 622.773438 389.402344 623.636719 385.375 623.636719 381.058594 C 623.636719 375.59375 623.636719 370.128906 623.636719 364.664062 Z M 623.636719 364.664062 " fill-opacity="1" fill-rule="nonzero"/><path fill="#393A10" d="M 774.941406 524.597656 C 770.339844 524.597656 767.175781 523.734375 764.585938 521.433594 C 755.667969 514.53125 747.902344 506.765625 744.738281 495.546875 C 743.585938 491.804688 741.285156 488.640625 738.410156 486.339844 C 734.671875 483.464844 731.792969 479.722656 730.644531 475.121094 C 728.917969 467.644531 724.027344 462.753906 718.273438 458.4375 C 714.535156 455.5625 713.671875 452.398438 714.535156 447.792969 C 715.683594 441.464844 717.125 435.136719 719.136719 429.097656 C 720 426.507812 721.726562 425.359375 724.316406 424.78125 C 731.792969 423.054688 736.972656 426.507812 741.285156 431.972656 C 741.863281 432.550781 742.148438 433.410156 742.722656 433.699219 C 752.21875 442.617188 755.957031 454.125 759.121094 465.917969 C 760.558594 471.382812 762.859375 475.984375 766.601562 480.011719 C 769.476562 482.886719 771.777344 486.628906 773.792969 490.367188 C 777.242188 496.695312 780.695312 503.023438 782.707031 510.214844 C 782.996094 511.367188 783.285156 512.230469 783.570312 513.378906 C 784.433594 519.132812 780.121094 524.597656 774.941406 524.597656 Z M 774.941406 524.597656 " fill-opacity="1" fill-rule="nonzero"/><path fill="#393A10" d="M 947.246094 458.726562 C 946.960938 466.492188 945.519531 473.109375 943.21875 479.4375 C 942.355469 482.027344 940.34375 483.75 937.46875 484.039062 C 934.589844 484.328125 932.578125 482.886719 931.425781 480.300781 C 929.988281 477.710938 928.835938 474.835938 927.972656 471.957031 C 926.535156 468.21875 925.386719 464.191406 924.234375 460.453125 C 923.660156 458.4375 922.796875 456.710938 922.222656 454.984375 C 918.769531 443.191406 912.152344 432.835938 904.675781 423.34375 C 902.371094 420.46875 900.359375 417.589844 898.632812 414.425781 C 896.332031 410.6875 896.90625 409.25 899.496094 405.507812 C 902.371094 401.195312 905.824219 400.621094 910.425781 401.195312 C 917.617188 402.058594 924.523438 404.648438 931.136719 407.234375 C 934.015625 408.386719 935.742188 410.6875 936.890625 413.5625 C 940.054688 421.90625 942.644531 430.246094 943.796875 439.164062 C 944.371094 442.617188 945.234375 445.78125 945.808594 449.234375 C 946.097656 452.972656 946.960938 456.425781 947.246094 458.726562 Z M 947.246094 458.726562 " fill-opacity="1" fill-rule="nonzero"/><g clip-path="url(#e01e6a25a5)"><path fill="#393A10" d="M 630 376.519531 L 638.019531 376.519531 L 638.019531 389.992188 L 630 389.992188 Z M 630 376.519531 " fill-opacity="1" fill-rule="nonzero"/></g></svg>